<?xml version="1.0" encoding="iso-8859-1"?>
<!-- Generator: Adobe Illustrator 17.1.0, SVG Export Plug-In . SVG Version: 6.00 Build 0)  -->
<!DOCTYPE svg PUBLIC "-//W3C//DTD SVG 1.1//EN" "http://www.w3.org/Graphics/SVG/1.1/DTD/svg11.dtd">
<svg version="1.1" id="Capa_1" style="background: red" xmlns="http://www.w3.org/2000/svg" xmlns:xlink="http://www.w3.org/1999/xlink" x="0px" y="0px"
   viewBox="0 0 383.299 383.299" xml:space="preserve">
<path fill="green" d="M349.664,253.855c-0.003-0.355-0.155-1.214-1.494-1.511c-1.762-0.392-4.602-2.736-8.196-5.704
  c-8.787-7.255-22.066-18.219-40.107-18.219c-0.516,0-1.035,0.009-1.629,0.029c-3.91,0-14.68-9.036-28.316-20.477
  c-7.66-6.426-16.342-13.71-25.793-21.089c-21.106-16.48-45.411-18.625-71.143-20.896c-7.534-0.665-15.325-1.353-22.956-2.433
  c-8.46-1.197-15.003-5.008-19.447-11.325c-8.224-11.691-9.463-31.783-3.682-59.715c0.224-1.081,0.392-1.898,0.477-2.404
  c0.12-0.717,0.29-1.709,0.5-2.927c1.702-9.903,6.222-36.207,6.036-47.978c-0.245-15.438-0.55-34.65-28.878-38.953
  C103.927,0.085,102.785,0,101.641,0C90.126,0,79.247,8.339,69.649,15.697c-4.936,3.784-9.598,7.357-13.384,8.898
  c-1.726,0.703-4.23,1.624-6.881,2.6c-13.105,4.824-15.755,6.112-15.749,7.655l0.003,0.819l0.803,0.158
  c0.284,0.056,28.505,5.616,38.502,6.727c9.069,1.008,17.062,13.706,20.07,18.486l0.457,0.724c1.267,1.989,5.026,10.291,0.237,33.577
  c-1.421,6.911-6.699,16.014-13.382,27.538c-6.402,11.041-14.37,24.782-21.359,40.967c-15.057,34.868-3.369,66.725,12.589,84.912
  c0.654,0.745,1.422,1.672,2.32,2.753c7.578,9.134,24.348,29.338,58.227,44.643c1.567,12.593,3.427,33.446,3.025,37.459
  c-0.358,3.581-1.598,6.795-12.69,6.796c-2.134,0-4.614-0.125-7.369-0.372c-5.628-0.504-10.059-0.76-13.168-0.76
  c-4.522,0-6.297,0.494-6.551,1.822c-0.229,1.202,0.941,2.138,3.521,3.309c-2.208,0.325-5.001,0.828-7.635,1.39
  c-9.567,2.044-9.639,3.149-9.691,3.956c-0.096,1.481,2.012,1.756,3.025,1.888c4.302,0.56,8.078,0.862,11.111,1.105
  c1.359,0.109,2.744,0.22,3.796,0.334c-2.621,1.833-7.953,6.02-7.544,7.972c0.054,0.259,0.329,1.104,1.594,1.104
  c0.297,0,0.642-0.044,1.055-0.136c2.134-0.474,5.334-1.34,9.387-2.436c9.545-2.581,22.617-6.116,33.132-7.596
  c4.803-0.676,8.664-0.968,11.767-1.202c5.158-0.39,7.748-0.585,8.743-2.144c0.465-0.729,0.486-1.629,0.065-2.753
  c-0.809-2.157-2.863-3.127-4.85-4.065c-2.505-1.183-4.871-2.3-5.133-5.704c-0.319-4.145,0.364-15.822,0.913-25.205
  c0.171-2.928,0.331-5.663,0.452-8.001c5.65,2.075,10.808,3.904,15.551,5.509c0.043,0.246,0.088,0.49,0.136,0.731
  c1.541,7.703,4.729,40.426,4.214,45.567c-0.359,3.59-1.601,6.812-12.709,6.812c-2.13,0-4.604-0.125-7.35-0.371
  c-5.623-0.503-10.05-0.759-13.159-0.759c-4.528,0-6.306,0.495-6.56,1.824c-0.23,1.204,0.942,2.141,3.526,3.315
  c-2.209,0.325-5.003,0.829-7.639,1.392c-9.568,2.045-9.64,3.151-9.692,3.958c-0.096,1.481,2.012,1.756,3.026,1.888
  c4.296,0.56,8.069,0.862,11.101,1.105c1.364,0.109,2.753,0.221,3.808,0.335c-2.621,1.833-7.954,6.021-7.546,7.973
  c0.054,0.259,0.329,1.104,1.594,1.104h0c0.297,0,0.642-0.044,1.054-0.136c2.134-0.474,5.337-1.34,9.391-2.436
  c9.544-2.581,22.615-6.115,33.128-7.595c4.803-0.676,8.665-0.968,11.768-1.203c5.157-0.39,7.746-0.585,8.741-2.144
  c0.465-0.729,0.486-1.629,0.065-2.753c-0.809-2.157-2.863-3.127-4.85-4.065c-2.505-1.183-4.871-2.3-5.133-5.704
  c-0.319-4.146,0.364-15.853,0.913-25.259c0.362-6.212,0.675-11.577,0.675-14.06c0-0.941,0.085-2.244,0.228-3.772
  c10.717,2.848,18.857,4.029,26.287,4.029c6.085,0,11.975-0.806,18.534-2.536c22.962-6.057,30.054-13.777,36.912-21.244
  c6.407-6.976,12.459-13.564,31.714-18.207c6.936-1.672,19.625-6.012,31.575-10.8C349.691,256.87,349.672,254.757,349.664,253.855z"
  />
</svg>
