<?xml version="1.0" standalone="no"?>
<!DOCTYPE svg PUBLIC "-//W3C//DTD SVG 20010904//EN"
 "http://www.w3.org/TR/2001/REC-SVG-20010904/DTD/svg10.dtd">
<svg version="1.0" xmlns="http://www.w3.org/2000/svg"
 width="500.000000pt" height="500.000000pt" viewBox="0 0 500.000000 500.000000"
 preserveAspectRatio="xMidYMid meet">
<metadata>
Created by potrace 1.11, written by Peter Selinger 2001-2013
</metadata>
<g transform="translate(0.000000,500.000000) scale(0.100000,-0.100000)"
fill="#000000" stroke="none">
<path d="M3787 3884 c-1 -1 -40 -4 -87 -8 -191 -13 -322 -65 -425 -170 -67
-68 -124 -173 -140 -256 -3 -13 -8 -42 -12 -65 -4 -22 -8 -148 -8 -280 0 -197
3 -254 18 -318 56 -239 216 -389 460 -434 18 -3 158 -8 312 -10 154 -2 304 -8
333 -14 65 -13 116 -59 133 -121 17 -64 14 -285 -4 -328 -28 -64 -84 -106
-157 -119 -96 -16 -899 3 -997 25 l-23 4 0 -193 0 -193 93 -22 c50 -12 108
-24 127 -27 19 -4 44 -8 55 -10 11 -1 45 -6 75 -10 30 -4 66 -9 80 -11 99 -16
579 -24 705 -11 190 19 344 104 434 238 37 55 84 181 98 258 8 52 10 418 2
481 -37 281 -191 465 -431 516 -54 12 -148 17 -368 19 -323 3 -361 8 -409 58
-42 42 -55 102 -55 253 1 188 29 250 131 285 57 20 459 16 873 -7 58 -3 121
-7 140 -8 l35 -1 0 183 c1 100 -2 186 -5 191 -5 7 -75 28 -130 37 -127 23
-183 30 -275 39 -38 4 -78 9 -88 11 -43 8 -483 24 -490 18z"/>
<path d="M399 3860 c-14 -3 -25 -13 -25 -23 -1 -10 -5 -55 -8 -100 -4 -45 -9
-104 -11 -132 -3 -27 -7 -77 -10 -110 -6 -86 -14 -173 -30 -340 -3 -27 -7 -77
-10 -110 -3 -33 -7 -85 -10 -115 -2 -30 -7 -86 -10 -125 -3 -38 -7 -88 -10
-110 -2 -22 -6 -69 -9 -105 -10 -111 -17 -183 -21 -229 -2 -24 -7 -82 -10
-130 -4 -47 -8 -97 -10 -111 -2 -14 -6 -59 -10 -100 -3 -41 -8 -97 -11 -125
-3 -27 -7 -75 -9 -105 -4 -52 -11 -129 -21 -230 -2 -25 -6 -81 -10 -125 -3
-44 -7 -84 -7 -90 -1 -6 83 -10 237 -10 213 0 239 2 241 16 2 9 6 59 10 110 4
52 8 105 10 119 2 14 6 66 10 115 4 50 8 101 10 115 3 14 7 61 10 105 3 44 8
91 10 105 2 14 7 68 10 120 3 52 8 106 10 120 2 14 7 63 10 110 4 47 8 97 10
113 2 15 6 62 10 105 3 42 8 97 11 121 3 24 7 65 9 90 13 167 17 206 19 208 2
2 402 -1583 412 -1636 3 -14 7 -28 10 -33 3 -4 126 -8 274 -8 l270 0 4 23 c3
12 19 81 36 152 17 72 33 138 35 148 2 10 7 27 10 37 3 10 8 27 10 37 2 10 9
41 15 68 6 28 13 57 15 65 2 8 22 89 44 179 23 91 43 174 46 185 2 12 6 30 9
41 2 11 23 97 45 190 23 94 46 188 52 210 6 22 13 51 16 65 12 74 71 281 73
255 1 -16 3 -37 5 -46 1 -9 6 -59 10 -110 4 -52 8 -96 10 -99 2 -3 6 -43 10
-90 3 -47 8 -98 10 -115 1 -16 6 -61 9 -100 4 -38 9 -81 11 -95 2 -14 6 -59
10 -100 3 -41 8 -93 10 -115 2 -22 7 -69 10 -105 3 -36 8 -83 10 -105 3 -22 7
-65 10 -95 2 -30 7 -82 11 -115 7 -65 8 -78 19 -205 4 -47 9 -92 10 -100 2 -8
4 -25 4 -37 l1 -23 240 0 241 0 -6 55 c-3 30 -8 81 -11 113 -3 31 -7 75 -9 97
-6 67 -15 168 -20 215 -3 25 -7 74 -10 110 -3 36 -8 81 -10 100 -2 19 -7 71
-11 115 -7 83 -7 89 -18 215 -4 41 -9 86 -11 100 -3 14 -7 61 -10 105 -3 44
-8 98 -10 120 -4 37 -7 64 -19 200 -3 28 -8 84 -11 125 -4 41 -9 88 -10 105
-2 16 -7 61 -10 100 -4 38 -8 86 -10 105 -2 19 -6 69 -10 110 -3 41 -8 86 -10
100 -2 14 -7 66 -10 115 -4 50 -9 93 -10 96 -2 3 -5 31 -6 63 -2 39 -7 60 -17
63 -8 4 -159 6 -337 7 l-322 1 -91 -375 c-51 -206 -117 -478 -147 -605 -31
-126 -68 -277 -82 -335 -14 -58 -27 -116 -30 -129 -2 -14 -6 -28 -8 -31 -2 -4
-7 -20 -10 -36 -3 -16 -16 -72 -29 -124 l-23 -95 -12 45 c-6 25 -18 70 -26
100 -8 30 -16 66 -19 80 -2 14 -18 81 -36 150 -17 69 -33 132 -35 140 -2 8
-11 47 -20 85 -9 39 -18 77 -20 85 -2 8 -13 53 -25 100 -11 47 -23 94 -25 105
-3 11 -27 112 -56 225 -28 113 -52 212 -54 220 -10 48 -87 364 -92 376 -3 8
-13 14 -22 15 -108 3 -613 3 -632 -1z"/>
</g>
</svg>
