<?xml version="1.0" encoding="iso-8859-1"?>
<!-- Generator: Adobe Illustrator 16.0.0, SVG Export Plug-In . SVG Version: 6.00 Build 0)  -->
<!DOCTYPE svg PUBLIC "-//W3C//DTD SVG 1.1//EN" "http://www.w3.org/Graphics/SVG/1.1/DTD/svg11.dtd">
<svg version="1.1" id="Capa_1" xmlns="http://www.w3.org/2000/svg" xmlns:xlink="http://www.w3.org/1999/xlink" x="0px" y="0px"
	 width="915.9px" height="915.9px" viewBox="0 0 915.9 915.9" style="enable-background:new 0 0 915.9 915.9;" xml:space="preserve"
	>
<g>
	<g>
		<path d="M749.101,0H166.7c-27.6,0-50,22.4-50,50v815.9c0,27.6,22.4,50,50,50h582.5c27.601,0,50-22.4,50-50V50
			C799.101,22.3,776.801,0,749.101,0z M740.5,817.5c0,22.1-17.899,40-40,40H215.3c-22.1,0-40-17.9-40-40V523.6c0-22.1,17.9-40,40-40
			h485.2c22.101,0,40,17.9,40,40V817.5z M740.5,392.1c0,22.1-17.899,40-40,40H215.3c-22.1,0-40-17.9-40-40V98.2
			c0-22.1,17.9-40,40-40h485.2c22.101,0,40,17.9,40,40V392.1z"/>
		<path d="M700.5,88.2H215.3c-5.5,0-10,4.5-10,10v293.9c0,5.5,4.5,10,10,10h485.2c5.5,0,10-4.5,10-10V98.2
			C710.5,92.7,706,88.2,700.5,88.2z M617.2,266.5c0,22.1-17.899,40-40,40h-238.6c-22.101,0-40-17.9-40-40v-15.7c0-8.3,6.7-15,15-15
			s15,6.7,15,15l0,0v15.7c0,5.5,4.5,10,10,10h238.6c5.5,0,10-4.5,10-10v-15.7l0,0c0-8.3,6.7-15,15-15s15,6.7,15,15V266.5
			L617.2,266.5z"/>
		<path d="M700.5,513.6H215.3c-5.5,0-10,4.5-10,10v293.9c0,5.5,4.5,10,10,10h485.2c5.5,0,10-4.5,10-10V523.6
			C710.5,518.1,706,513.6,700.5,513.6z M617.2,683.6c0,23.5-19.1,42.6-42.6,42.6h-236c-22.101,0-40-17.898-40-40v-15.6
			c0-8.299,6.7-15,15-15s15,6.701,15,15l0,0v15.701c0,5.5,4.5,10,10,10h236c7,0,12.6-5.701,12.6-12.602v-13.1l0,0
			c0-8.299,6.7-15,15-15s15,6.701,15,15V683.6z"/>
	</g>
</g>
<g>
</g>
<g>
</g>
<g>
</g>
<g>
</g>
<g>
</g>
<g>
</g>
<g>
</g>
<g>
</g>
<g>
</g>
<g>
</g>
<g>
</g>
<g>
</g>
<g>
</g>
<g>
</g>
<g>
</g>
</svg>
